<svg width="1200" height="630" viewBox="0 0 1200 630" fill="none" xmlns="http://www.w3.org/2000/svg">
  <rect width="1200" height="630" fill="#07120F"/>
  <path d="M0 0H1200V630H0V0Z" fill="url(#bg)"/>
  <path d="M91 520C181 407 280 363 390 388C525 419 548 493 703 446C837 406 864 286 1020 238C1092 216 1149 225 1190 248" stroke="#5EEAD4" stroke-width="3" stroke-linecap="round" opacity="0.45"/>
  <path d="M49 451C164 353 278 324 389 364C505 406 606 454 728 389C842 328 872 213 1011 191C1092 178 1148 197 1195 220" stroke="#22C55E" stroke-width="3" stroke-linecap="round" opacity="0.35"/>
  <path d="M90 561C186 508 300 483 431 486C548 489 629 528 735 496C847 463 901 371 1015 336C1091 313 1147 323 1186 352" stroke="#84CC16" stroke-width="2" stroke-linecap="round" opacity="0.26"/>

  <circle cx="183" cy="118" r="92" fill="#10B981" opacity="0.09"/>
  <circle cx="1005" cy="514" r="118" fill="#A3E635" opacity="0.08"/>
  <path d="M994 460C1024 447 1041 418 1048 384C1062 424 1048 462 1016 484C1053 477 1085 493 1108 526C1066 514 1026 521 994 552C1006 516 1005 487 994 460Z" fill="#22C55E" opacity="0.16"/>
  <path d="M125 154C156 141 175 114 181 82C196 120 184 156 153 176C187 171 218 187 239 217C199 206 163 213 134 242C145 209 141 180 125 154Z" fill="#5EEAD4" opacity="0.13"/>

  <text x="72" y="78" fill="#ECFDF5" font-family="ui-monospace, SFMono-Regular, Menlo, monospace" font-size="34" font-weight="800">Beyond Worktrees</text>
  <text x="72" y="112" fill="#A7F3D0" font-family="ui-monospace, SFMono-Regular, Menlo, monospace" font-size="18">capability map for solo, budget-aware agent orchestration</text>

  <g filter="url(#softShadow)">
    <rect x="70" y="148" width="1060" height="390" rx="22" fill="#0B1519" fill-opacity="0.86" stroke="#21463F"/>
    <rect x="72" y="150" width="1056" height="386" rx="20" fill="url(#panelGlow)" opacity="0.7"/>
  </g>

  <g font-family="ui-monospace, SFMono-Regular, Menlo, monospace" font-size="15" fill="#CFFAFE">
    <text x="102" y="197" fill="#93C5FD">capability</text>
    <text x="360" y="197">Codex App</text>
    <text x="493" y="197">Codex Cloud</text>
    <text x="637" y="197">Claude Code</text>
    <text x="779" y="197">workmux</text>
    <text x="888" y="197">Skills</text>
    <text x="1001" y="197" fill="#BBF7D0" font-size="18" font-weight="800">wtcraft</text>
  </g>

  <g opacity="0.52" stroke="#1F3F3A">
    <path d="M96 220H1102"/>
    <path d="M96 260H1102"/>
    <path d="M96 300H1102"/>
    <path d="M96 340H1102"/>
    <path d="M96 380H1102"/>
    <path d="M96 420H1102"/>
    <path d="M96 460H1102"/>
    <path d="M96 500H1102"/>
    <path d="M330 174V532"/>
    <path d="M462 174V532"/>
    <path d="M604 174V532"/>
    <path d="M748 174V532"/>
    <path d="M862 174V532"/>
    <path d="M974 174V532"/>
  </g>

  <rect x="975" y="168" width="126" height="364" rx="18" fill="#064E3B" fill-opacity="0.36" stroke="#34D399" stroke-opacity="0.7"/>
  <text x="1007" y="489" fill="#86EFAC" font-family="ui-monospace, SFMono-Regular, Menlo, monospace" font-size="12" font-weight="700">task contract</text>

  <g font-family="ui-monospace, SFMono-Regular, Menlo, monospace" font-size="15" fill="#E2E8F0">
    <text x="102" y="245">parallel runs</text>
    <text x="102" y="285">worktree isolation</text>
    <text x="102" y="325">local CLI / IDE</text>
    <text x="102" y="365">agent handoff</text>
    <text x="102" y="405">file boundaries</text>
    <text x="102" y="445">verification gates</text>
    <text x="102" y="485">budget-aware</text>
    <text x="102" y="525">lightweight</text>
  </g>

  <g font-family="ui-monospace, SFMono-Regular, Menlo, monospace" font-size="15" font-weight="800">
    <!-- Codex App -->
    <text x="389" y="245" fill="#86EFAC">●</text>
    <text x="389" y="285" fill="#64748B">○</text>
    <text x="389" y="325" fill="#64748B">○</text>
    <text x="389" y="365" fill="#FACC15">◐</text>
    <text x="389" y="405" fill="#64748B">○</text>
    <text x="389" y="445" fill="#FACC15">◐</text>
    <text x="389" y="485" fill="#64748B">○</text>
    <text x="389" y="525" fill="#64748B">○</text>

    <!-- Codex Cloud -->
    <text x="528" y="245" fill="#86EFAC">●</text>
    <text x="528" y="285" fill="#86EFAC">●</text>
    <text x="528" y="325" fill="#64748B">○</text>
    <text x="528" y="365" fill="#FACC15">◐</text>
    <text x="528" y="405" fill="#64748B">○</text>
    <text x="528" y="445" fill="#FACC15">◐</text>
    <text x="528" y="485" fill="#64748B">○</text>
    <text x="528" y="525" fill="#64748B">○</text>

    <!-- Claude Code -->
    <text x="674" y="245" fill="#86EFAC">●</text>
    <text x="674" y="285" fill="#86EFAC">●</text>
    <text x="674" y="325" fill="#86EFAC">●</text>
    <text x="674" y="365" fill="#FACC15">◐</text>
    <text x="674" y="405" fill="#64748B">○</text>
    <text x="674" y="445" fill="#FACC15">◐</text>
    <text x="674" y="485" fill="#64748B">○</text>
    <text x="674" y="525" fill="#64748B">○</text>

    <!-- workmux -->
    <text x="806" y="245" fill="#86EFAC">●</text>
    <text x="806" y="285" fill="#86EFAC">●</text>
    <text x="806" y="325" fill="#86EFAC">●</text>
    <text x="806" y="365" fill="#64748B">○</text>
    <text x="806" y="405" fill="#64748B">○</text>
    <text x="806" y="445" fill="#64748B">○</text>
    <text x="806" y="485" fill="#64748B">○</text>
    <text x="806" y="525" fill="#64748B">○</text>

    <!-- Skills/templates -->
    <text x="912" y="245" fill="#64748B">○</text>
    <text x="912" y="285" fill="#64748B">○</text>
    <text x="912" y="325" fill="#86EFAC">●</text>
    <text x="912" y="365" fill="#FACC15">◐</text>
    <text x="912" y="405" fill="#FACC15">◐</text>
    <text x="912" y="445" fill="#FACC15">◐</text>
    <text x="912" y="485" fill="#FACC15">◐</text>
    <text x="912" y="525" fill="#86EFAC">●</text>

    <!-- wtcraft -->
    <text x="1031" y="245" fill="#86EFAC">●</text>
    <text x="1031" y="285" fill="#86EFAC">●</text>
    <text x="1031" y="325" fill="#86EFAC">●</text>
    <text x="1031" y="365" fill="#86EFAC">●</text>
    <text x="1031" y="405" fill="#86EFAC">●</text>
    <text x="1031" y="445" fill="#86EFAC">●</text>
    <text x="1031" y="485" fill="#86EFAC">●</text>
    <text x="1031" y="525" fill="#86EFAC">●</text>
  </g>

  <g>
    <rect x="73" y="548" width="1054" height="52" rx="18" fill="#052E2B" fill-opacity="0.76" stroke="#14532D"/>
    <text x="103" y="580" fill="#D1FAE5" font-family="ui-monospace, SFMono-Regular, Menlo, monospace" font-size="19" font-weight="800">wtcraft = git-native isolation + durable handoff + boundaries + verification</text>
    <text x="775" y="580" fill="#A3E635" font-family="ui-monospace, SFMono-Regular, Menlo, monospace" font-size="17" font-weight="700">lightweight by design</text>
  </g>

  <g font-family="ui-monospace, SFMono-Regular, Menlo, monospace" font-size="12">
    <text x="101" y="535" fill="#86EFAC">● full</text>
    <text x="173" y="535" fill="#FACC15">◐ partial</text>
    <text x="266" y="535" fill="#64748B">○ absent / external</text>
  </g>

  <defs>
    <linearGradient id="bg" x1="0" y1="0" x2="1200" y2="630" gradientUnits="userSpaceOnUse">
      <stop stop-color="#0F172A"/>
      <stop offset="0.52" stop-color="#07120F"/>
      <stop offset="1" stop-color="#052E16"/>
    </linearGradient>
    <linearGradient id="panelGlow" x1="70" y1="148" x2="1130" y2="518" gradientUnits="userSpaceOnUse">
      <stop stop-color="#10223C"/>
      <stop offset="0.56" stop-color="#0B1519"/>
      <stop offset="1" stop-color="#06351F"/>
    </linearGradient>
    <filter id="softShadow" x="42" y="126" width="1116" height="446" filterUnits="userSpaceOnUse" color-interpolation-filters="sRGB">
      <feDropShadow dx="0" dy="20" stdDeviation="18" flood-color="#020617" flood-opacity="0.48"/>
    </filter>
  </defs>
</svg>
