<svg width="1020" height="510" xmlns="http://www.w3.org/2000/svg">
  <defs>
    <linearGradient id="bgGradient" x1="0%" y1="0%" x2="100%" y2="100%">
      <stop offset="0%" style="stop-color:#667eea;stop-opacity:1" />
      <stop offset="100%" style="stop-color:#764ba2;stop-opacity:1" />
    </linearGradient>
    <linearGradient id="chartGradient1" x1="0%" y1="0%" x2="0%" y2="100%">
      <stop offset="0%" style="stop-color:#ffd700;stop-opacity:0.9" />
      <stop offset="100%" style="stop-color:#ff6b6b;stop-opacity:0.9" />
    </linearGradient>
    <linearGradient id="chartGradient2" x1="0%" y1="0%" x2="0%" y2="100%">
      <stop offset="0%" style="stop-color:#4ecdc4;stop-opacity:0.9" />
      <stop offset="100%" style="stop-color:#44a3c5;stop-opacity:0.9" />
    </linearGradient>
    <linearGradient id="chartGradient3" x1="0%" y1="0%" x2="0%" y2="100%">
      <stop offset="0%" style="stop-color:#a8e6cf;stop-opacity:0.9" />
      <stop offset="100%" style="stop-color:#3dcca5;stop-opacity:0.9" />
    </linearGradient>
  </defs>
  
  <!-- Background -->
  <rect width="1020" height="510" fill="url(#bgGradient)"/>
  
  <!-- Grid pattern -->
  <g opacity="0.1">
    <line x1="0" y1="100" x2="1020" y2="100" stroke="white" stroke-width="1"/>
    <line x1="0" y1="200" x2="1020" y2="200" stroke="white" stroke-width="1"/>
    <line x1="0" y1="300" x2="1020" y2="300" stroke="white" stroke-width="1"/>
    <line x1="0" y1="400" x2="1020" y2="400" stroke="white" stroke-width="1"/>
  </g>
  
  <!-- Bar Chart 1 (D3.js style) -->
  <g transform="translate(150, 220)">
    <rect x="0" y="-120" width="60" height="120" fill="url(#chartGradient1)" rx="4"/>
    <rect x="80" y="-160" width="60" height="160" fill="url(#chartGradient1)" rx="4"/>
    <rect x="160" y="-100" width="60" height="100" fill="url(#chartGradient1)" rx="4"/>
    <rect x="240" y="-140" width="60" height="140" fill="url(#chartGradient1)" rx="4"/>
    <rect x="320" y="-180" width="60" height="180" fill="url(#chartGradient1)" rx="4"/>
  </g>
  
  <!-- Line Chart (Chart.js style) -->
  <g transform="translate(550, 250)">
    <polyline 
      points="0,-50 50,-80 100,-60 150,-100 200,-70 250,-90 300,-40" 
      fill="none" 
      stroke="url(#chartGradient2)" 
      stroke-width="4" 
      stroke-linecap="round" 
      stroke-linejoin="round"/>
    <circle cx="0" cy="-50" r="5" fill="url(#chartGradient2)"/>
    <circle cx="50" cy="-80" r="5" fill="url(#chartGradient2)"/>
    <circle cx="100" cy="-60" r="5" fill="url(#chartGradient2)"/>
    <circle cx="150" cy="-100" r="5" fill="url(#chartGradient2)"/>
    <circle cx="200" cy="-70" r="5" fill="url(#chartGradient2)"/>
    <circle cx="250" cy="-90" r="5" fill="url(#chartGradient2)"/>
    <circle cx="300" cy="-40" r="5" fill="url(#chartGradient2)"/>
  </g>
  
  <!-- Pie Chart (Recharts style) -->
  <g transform="translate(900, 280)">
    <path d="M 0,-100 A 100,100 0 0,1 70.7,-70.7 L 0,0 Z" fill="url(#chartGradient3)"/>
    <path d="M 70.7,-70.7 A 100,100 0 0,1 0,100 L 0,0 Z" fill="url(#chartGradient2)"/>
    <path d="M 0,100 A 100,100 0 0,1 -70.7,70.7 L 0,0 Z" fill="url(#chartGradient1)"/>
  </g>
  
  <!-- Simplified Title -->
  <text x="510" y="130" font-family="Inter, sans-serif" font-size="56" font-weight="bold" fill="white" text-anchor="middle">JavaScript Data Visualization</text>
  
  <!-- Decorative elements -->
  <circle cx="80" cy="80" r="3" fill="white" opacity="0.6"/>
  <circle cx="940" cy="100" r="3" fill="white" opacity="0.6"/>
  <circle cx="50" cy="450" r="3" fill="white" opacity="0.6"/>
  <circle cx="970" cy="430" r="3" fill="white" opacity="0.6"/>
</svg>
