<svg width="1020" height="510" xmlns="http://www.w3.org/2000/svg">
  <defs>
    <linearGradient id="bgGradient" x1="0%" y1="0%" x2="100%" y2="100%">
      <stop offset="0%" style="stop-color:#2c3e50;stop-opacity:1" />
      <stop offset="100%" style="stop-color:#34495e;stop-opacity:1" />
    </linearGradient>
    <linearGradient id="codeGradient" x1="0%" y1="0%" x2="100%" y2="100%">
      <stop offset="0%" style="stop-color:#3498db;stop-opacity:1" />
      <stop offset="100%" style="stop-color:#2980b9;stop-opacity:1" />
    </linearGradient>
    <linearGradient id="aiGradient" x1="0%" y1="0%" x2="100%" y2="100%">
      <stop offset="0%" style="stop-color:#e74c3c;stop-opacity:1" />
      <stop offset="100%" style="stop-color:#c0392b;stop-opacity:1" />
    </linearGradient>
  </defs>

  <rect width="100%" height="100%" fill="url(#bgGradient)" />

  <!-- Abstract code lines -->
  <path d="M100 150 L400 150 M100 180 L350 180 M100 210 L450 210 M100 240 L300 240" stroke="#ecf0f1" stroke-width="4" stroke-opacity="0.2" stroke-linecap="round"/>
  <path d="M600 200 L900 200 M600 230 L850 230 M600 260 L950 260 M600 290 L800 290" stroke="#ecf0f1" stroke-width="4" stroke-opacity="0.2" stroke-linecap="round"/>

  <!-- C# / .NET Logo elements (simplified) -->
  <rect x="150" y="100" width="200" height="200" rx="20" fill="url(#codeGradient)" opacity="0.8"/>
  <text x="250" y="210" font-family="Arial, sans-serif" font-size="100" fill="#ecf0f1" text-anchor="middle" font-weight="bold">C#</text>
  <text x="250" y="270" font-family="Arial, sans-serif" font-size="40" fill="#ecf0f1" text-anchor="middle">.NET</text>

  <!-- AI/Vibe element (simplified brain/neural network) -->
  <circle cx="770" cy="180" r="60" fill="url(#aiGradient)" opacity="0.8"/>
  <circle cx="700" cy="250" r="60" fill="url(#aiGradient)" opacity="0.8"/>
  <circle cx="840" cy="250" r="60" fill="url(#aiGradient)" opacity="0.8"/>
  <line x1="770" y1="180" x2="700" y2="250" stroke="#ecf0f1" stroke-width="3" stroke-opacity="0.4"/>
  <line x1="770" y1="180" x2="840" y2="250" stroke="#ecf0f1" stroke-width="3" stroke-opacity="0.4"/>

  <!-- Title Text -->
  <text x="510" y="400" font-family="Inter, sans-serif" font-size="60" fill="#ecf0f1" text-anchor="middle" font-weight="bold">Vibe Coding</text>
  <text x="510" y="460" font-family="Inter, sans-serif" font-size="30" fill="#ecf0f1" text-anchor="middle" opacity="0.8">C# .NET Legacy Codebases</text>
</svg>

